<svg width="73" height="72" viewBox="0 0 73 72" fill="none" xmlns="http://www.w3.org/2000/svg">
<rect x="0.333374" width="72" height="72" rx="36" fill="white"/>
<path d="M18.8334 52C18.0334 52 17.3334 51.7 16.7334 51.1C16.1334 50.5 15.8334 49.8 15.8334 49V23C15.8334 22.2 16.1334 21.5 16.7334 20.9C17.3334 20.3 18.0334 20 18.8334 20H52.8334C53.6334 20 54.3334 20.3 54.9334 20.9C55.5334 21.5 55.8334 22.2 55.8334 23V49C55.8334 49.8 55.5334 50.5 54.9334 51.1C54.3334 51.7 53.6334 52 52.8334 52H18.8334ZM18.8334 49H40.8334V23H18.8334V49ZM43.8334 49H52.8334V23H43.8334V49ZM46.8334 29H49.8334V26H46.8334V29ZM48.3334 37.5C48.7667 37.5 49.125 37.35 49.4084 37.05C49.6917 36.75 49.8334 36.4 49.8334 36C49.8334 35.5667 49.6917 35.2083 49.4084 34.925C49.125 34.6417 48.7667 34.5 48.3334 34.5C47.9334 34.5 47.5834 34.6417 47.2834 34.925C46.9834 35.2083 46.8334 35.5667 46.8334 36C46.8334 36.4 46.9834 36.75 47.2834 37.05C47.5834 37.35 47.9334 37.5 48.3334 37.5ZM48.3334 46C48.7667 46 49.125 45.85 49.4084 45.55C49.6917 45.25 49.8334 44.9 49.8334 44.5C49.8334 44.0667 49.6917 43.7083 49.4084 43.425C49.125 43.1417 48.7667 43 48.3334 43C47.9334 43 47.5834 43.1417 47.2834 43.425C46.9834 43.7083 46.8334 44.0667 46.8334 44.5C46.8334 44.9 46.9834 45.25 47.2834 45.55C47.5834 45.85 47.9334 46 48.3334 46ZM32.3334 43.5C31.6 43.5 30.9667 43.3667 30.4334 43.1C29.9 42.8333 29.4334 42.5667 29.0334 42.3C28.7667 42.1333 28.4917 41.9583 28.2084 41.775C27.925 41.5917 27.6334 41.5 27.3334 41.5C26.9667 41.5 26.625 41.6083 26.3084 41.825C25.9917 42.0417 25.7 42.2667 25.4334 42.5L23.2834 40.4C23.6834 40 24.2334 39.5833 24.9334 39.15C25.6334 38.7167 26.4334 38.5 27.3334 38.5C28.0667 38.5 28.7084 38.6417 29.2584 38.925C29.8084 39.2083 30.2834 39.4833 30.6834 39.75C31.05 39.9833 31.35 40.1667 31.5834 40.3C31.8167 40.4333 32.0667 40.5 32.3334 40.5C32.7 40.5 33.0417 40.3917 33.3584 40.175C33.675 39.9583 33.9667 39.7333 34.2334 39.5L36.3834 41.6C35.9834 42 35.4334 42.4167 34.7334 42.85C34.0334 43.2833 33.2334 43.5 32.3334 43.5ZM32.3334 33.5C31.6 33.5 30.9667 33.3667 30.4334 33.1C29.9 32.8333 29.4334 32.5667 29.0334 32.3C28.7667 32.1333 28.4917 31.9583 28.2084 31.775C27.925 31.5917 27.6334 31.5 27.3334 31.5C26.9667 31.5 26.625 31.6083 26.3084 31.825C25.9917 32.0417 25.7 32.2667 25.4334 32.5L23.2834 30.4C23.6834 30 24.2334 29.5833 24.9334 29.15C25.6334 28.7167 26.4334 28.5 27.3334 28.5C28.0667 28.5 28.7084 28.6417 29.2584 28.925C29.8084 29.2083 30.2834 29.4833 30.6834 29.75C31.05 29.9833 31.35 30.1667 31.5834 30.3C31.8167 30.4333 32.0667 30.5 32.3334 30.5C32.7 30.5 33.0417 30.3917 33.3584 30.175C33.675 29.9583 33.9667 29.7333 34.2334 29.5L36.3834 31.6C35.9834 32 35.4334 32.4167 34.7334 32.85C34.0334 33.2833 33.2334 33.5 32.3334 33.5Z" fill="#34A0A4"/>
</svg>
