<svg width="72" height="72" viewBox="0 0 72 72" fill="none" xmlns="http://www.w3.org/2000/svg">
<g clip-path="url(#clip0_114_82)">
<rect width="72" height="72" rx="36" fill="white"/>
<path d="M14 51V43C14 42.0333 14.3417 41.2083 15.025 40.525C15.7083 39.8417 16.5333 39.5 17.5 39.5H24.55C25.1167 39.5 25.6583 39.6417 26.175 39.925C26.6917 40.2083 27.1333 40.6 27.5 41.1C28.4667 42.5 29.7 43.5833 31.2 44.35C32.7 45.1167 34.3 45.5 36 45.5C37.7 45.5 39.3 45.1167 40.8 44.35C42.3 43.5833 43.55 42.5 44.55 41.1C44.9167 40.6 45.35 40.2083 45.85 39.925C46.35 39.6417 46.8833 39.5 47.45 39.5H54.5C55.4667 39.5 56.2917 39.8417 56.975 40.525C57.6583 41.2083 58 42.0333 58 43V51H45V45.05C43.8 46.15 42.425 47 40.875 47.6C39.325 48.2 37.7 48.5 36 48.5C34.3 48.5 32.6833 48.2 31.15 47.6C29.6167 47 28.2333 46.15 27 45.05V51H14ZM36 42.5C34.8333 42.5 33.7083 42.225 32.625 41.675C31.5417 41.125 30.6667 40.3667 30 39.4C29.4667 38.6333 28.825 38.0167 28.075 37.55C27.325 37.0833 26.5167 36.7667 25.65 36.6C26.6167 35.6 28.1333 34.8333 30.2 34.3C32.2667 33.7667 34.2 33.5 36 33.5C37.8 33.5 39.7417 33.7667 41.825 34.3C43.9083 34.8333 45.4333 35.6 46.4 36.6C45.5333 36.7667 44.725 37.0833 43.975 37.55C43.225 38.0167 42.5833 38.6333 42.05 39.4C41.3833 40.3667 40.5083 41.125 39.425 41.675C38.3417 42.225 37.2 42.5 36 42.5ZM20 36C18.5 36 17.2083 35.4583 16.125 34.375C15.0417 33.2917 14.5 32 14.5 30.5C14.5 28.9667 15.0417 27.6667 16.125 26.6C17.2083 25.5333 18.5 25 20 25C21.5333 25 22.8333 25.5333 23.9 26.6C24.9667 27.6667 25.5 28.9667 25.5 30.5C25.5 32 24.9667 33.2917 23.9 34.375C22.8333 35.4583 21.5333 36 20 36ZM52 36C50.5 36 49.2083 35.4583 48.125 34.375C47.0417 33.2917 46.5 32 46.5 30.5C46.5 28.9667 47.0417 27.6667 48.125 26.6C49.2083 25.5333 50.5 25 52 25C53.5333 25 54.8333 25.5333 55.9 26.6C56.9667 27.6667 57.5 28.9667 57.5 30.5C57.5 32 56.9667 33.2917 55.9 34.375C54.8333 35.4583 53.5333 36 52 36ZM36 30C34.5 30 33.2083 29.4583 32.125 28.375C31.0417 27.2917 30.5 26 30.5 24.5C30.5 22.9667 31.0417 21.6667 32.125 20.6C33.2083 19.5333 34.5 19 36 19C37.5333 19 38.8333 19.5333 39.9 20.6C40.9667 21.6667 41.5 22.9667 41.5 24.5C41.5 26 40.9667 27.2917 39.9 28.375C38.8333 29.4583 37.5333 30 36 30Z" fill="#34A0A4"/>
</g>
<defs>
<clipPath id="clip0_114_82">
<rect width="72" height="72" rx="36" fill="white"/>
</clipPath>
</defs>
</svg>
