<svg width="73" height="72" viewBox="0 0 73 72" fill="none" xmlns="http://www.w3.org/2000/svg">
<g clip-path="url(#clip0_289_875)">
<rect x="0.666687" width="72" height="72" rx="36" fill="white"/>
<path d="M14.6667 51V43C14.6667 42.0333 15.0084 41.2083 15.6917 40.525C16.375 39.8417 17.2 39.5 18.1667 39.5H25.2167C25.7834 39.5 26.325 39.6417 26.8417 39.925C27.3584 40.2083 27.8 40.6 28.1667 41.1C29.1334 42.5 30.3667 43.5833 31.8667 44.35C33.3667 45.1167 34.9667 45.5 36.6667 45.5C38.3667 45.5 39.9667 45.1167 41.4667 44.35C42.9667 43.5833 44.2167 42.5 45.2167 41.1C45.5834 40.6 46.0167 40.2083 46.5167 39.925C47.0167 39.6417 47.55 39.5 48.1167 39.5H55.1667C56.1334 39.5 56.9584 39.8417 57.6417 40.525C58.325 41.2083 58.6667 42.0333 58.6667 43V51H45.6667V45.05C44.4667 46.15 43.0917 47 41.5417 47.6C39.9917 48.2 38.3667 48.5 36.6667 48.5C34.9667 48.5 33.35 48.2 31.8167 47.6C30.2834 47 28.9 46.15 27.6667 45.05V51H14.6667ZM36.6667 42.5C35.5 42.5 34.375 42.225 33.2917 41.675C32.2084 41.125 31.3334 40.3667 30.6667 39.4C30.1334 38.6333 29.4917 38.0167 28.7417 37.55C27.9917 37.0833 27.1834 36.7667 26.3167 36.6C27.2834 35.6 28.8 34.8333 30.8667 34.3C32.9334 33.7667 34.8667 33.5 36.6667 33.5C38.4667 33.5 40.4084 33.7667 42.4917 34.3C44.575 34.8333 46.1 35.6 47.0667 36.6C46.2 36.7667 45.3917 37.0833 44.6417 37.55C43.8917 38.0167 43.25 38.6333 42.7167 39.4C42.05 40.3667 41.175 41.125 40.0917 41.675C39.0084 42.225 37.8667 42.5 36.6667 42.5ZM20.6667 36C19.1667 36 17.875 35.4583 16.7917 34.375C15.7084 33.2917 15.1667 32 15.1667 30.5C15.1667 28.9667 15.7084 27.6667 16.7917 26.6C17.875 25.5333 19.1667 25 20.6667 25C22.2 25 23.5 25.5333 24.5667 26.6C25.6334 27.6667 26.1667 28.9667 26.1667 30.5C26.1667 32 25.6334 33.2917 24.5667 34.375C23.5 35.4583 22.2 36 20.6667 36ZM52.6667 36C51.1667 36 49.875 35.4583 48.7917 34.375C47.7084 33.2917 47.1667 32 47.1667 30.5C47.1667 28.9667 47.7084 27.6667 48.7917 26.6C49.875 25.5333 51.1667 25 52.6667 25C54.2 25 55.5 25.5333 56.5667 26.6C57.6334 27.6667 58.1667 28.9667 58.1667 30.5C58.1667 32 57.6334 33.2917 56.5667 34.375C55.5 35.4583 54.2 36 52.6667 36ZM36.6667 30C35.1667 30 33.875 29.4583 32.7917 28.375C31.7084 27.2917 31.1667 26 31.1667 24.5C31.1667 22.9667 31.7084 21.6667 32.7917 20.6C33.875 19.5333 35.1667 19 36.6667 19C38.2 19 39.5 19.5333 40.5667 20.6C41.6334 21.6667 42.1667 22.9667 42.1667 24.5C42.1667 26 41.6334 27.2917 40.5667 28.375C39.5 29.4583 38.2 30 36.6667 30Z" fill="#34A0A4"/>
</g>
<defs>
<clipPath id="clip0_289_875">
<rect x="0.666687" width="72" height="72" rx="36" fill="white"/>
</clipPath>
</defs>
</svg>
