<svg width="73" height="72" viewBox="0 0 73 72" fill="none" xmlns="http://www.w3.org/2000/svg">
<rect x="0.5" width="72" height="72" rx="36" fill="white"/>
<path d="M19 52C18.2 52 17.5 51.7 16.9 51.1C16.3 50.5 16 49.8 16 49V23C16 22.2 16.3 21.5 16.9 20.9C17.5 20.3 18.2 20 19 20H53C53.8 20 54.5 20.3 55.1 20.9C55.7 21.5 56 22.2 56 23V49C56 49.8 55.7 50.5 55.1 51.1C54.5 51.7 53.8 52 53 52H19ZM19 49H41V23H19V49ZM44 49H53V23H44V49ZM47 29H50V26H47V29ZM48.5 37.5C48.9333 37.5 49.2917 37.35 49.575 37.05C49.8583 36.75 50 36.4 50 36C50 35.5667 49.8583 35.2083 49.575 34.925C49.2917 34.6417 48.9333 34.5 48.5 34.5C48.1 34.5 47.75 34.6417 47.45 34.925C47.15 35.2083 47 35.5667 47 36C47 36.4 47.15 36.75 47.45 37.05C47.75 37.35 48.1 37.5 48.5 37.5ZM48.5 46C48.9333 46 49.2917 45.85 49.575 45.55C49.8583 45.25 50 44.9 50 44.5C50 44.0667 49.8583 43.7083 49.575 43.425C49.2917 43.1417 48.9333 43 48.5 43C48.1 43 47.75 43.1417 47.45 43.425C47.15 43.7083 47 44.0667 47 44.5C47 44.9 47.15 45.25 47.45 45.55C47.75 45.85 48.1 46 48.5 46ZM32.5 43.5C31.7667 43.5 31.1333 43.3667 30.6 43.1C30.0667 42.8333 29.6 42.5667 29.2 42.3C28.9333 42.1333 28.6583 41.9583 28.375 41.775C28.0917 41.5917 27.8 41.5 27.5 41.5C27.1333 41.5 26.7917 41.6083 26.475 41.825C26.1583 42.0417 25.8667 42.2667 25.6 42.5L23.45 40.4C23.85 40 24.4 39.5833 25.1 39.15C25.8 38.7167 26.6 38.5 27.5 38.5C28.2333 38.5 28.875 38.6417 29.425 38.925C29.975 39.2083 30.45 39.4833 30.85 39.75C31.2167 39.9833 31.5167 40.1667 31.75 40.3C31.9833 40.4333 32.2333 40.5 32.5 40.5C32.8667 40.5 33.2083 40.3917 33.525 40.175C33.8417 39.9583 34.1333 39.7333 34.4 39.5L36.55 41.6C36.15 42 35.6 42.4167 34.9 42.85C34.2 43.2833 33.4 43.5 32.5 43.5ZM32.5 33.5C31.7667 33.5 31.1333 33.3667 30.6 33.1C30.0667 32.8333 29.6 32.5667 29.2 32.3C28.9333 32.1333 28.6583 31.9583 28.375 31.775C28.0917 31.5917 27.8 31.5 27.5 31.5C27.1333 31.5 26.7917 31.6083 26.475 31.825C26.1583 32.0417 25.8667 32.2667 25.6 32.5L23.45 30.4C23.85 30 24.4 29.5833 25.1 29.15C25.8 28.7167 26.6 28.5 27.5 28.5C28.2333 28.5 28.875 28.6417 29.425 28.925C29.975 29.2083 30.45 29.4833 30.85 29.75C31.2167 29.9833 31.5167 30.1667 31.75 30.3C31.9833 30.4333 32.2333 30.5 32.5 30.5C32.8667 30.5 33.2083 30.3917 33.525 30.175C33.8417 29.9583 34.1333 29.7333 34.4 29.5L36.55 31.6C36.15 32 35.6 32.4167 34.9 32.85C34.2 33.2833 33.4 33.5 32.5 33.5Z" fill="#34A0A4"/>
</svg>
