<svg width="73" height="72" viewBox="0 0 73 72" fill="none" xmlns="http://www.w3.org/2000/svg">
<g clip-path="url(#clip0_114_97)">
<rect x="0.5" width="72" height="72" rx="36" fill="white"/>
<path d="M54.3167 57L38.975 41.6583L41.6583 38.975L57 54.3167L54.3167 57ZM21.0667 54.3167C19.0056 52.0611 17.4792 49.5625 16.4875 46.8208C15.4958 44.0792 15 41.2889 15 38.45C15 35.4167 15.5639 32.4611 16.6917 29.5833C17.8194 26.7056 19.5306 24.1194 21.825 21.825C24.1194 19.5306 26.7153 17.8194 29.6125 16.6917C32.5097 15.5639 35.475 15 38.5083 15C41.3472 15 44.1375 15.4958 46.8792 16.4875C49.6208 17.4792 52.1 19.0056 54.3167 21.0667L21.0667 54.3167ZM21.2417 49.125L25.2667 45.0417C24.6444 44.1861 24.0222 43.2625 23.4 42.2708C22.7778 41.2792 22.2042 40.2292 21.6792 39.1208C21.1542 38.0125 20.7167 36.8653 20.3667 35.6792C20.0167 34.4931 19.7833 33.2778 19.6667 32.0333C18.6167 34.9111 18.2569 37.8472 18.5875 40.8417C18.9181 43.8361 19.8028 46.5972 21.2417 49.125ZM28.0667 42.4167L42.4167 27.95C40.6278 26.55 38.8097 25.4514 36.9625 24.6542C35.1153 23.8569 33.3556 23.3319 31.6833 23.0792C30.0111 22.8264 28.5236 22.8264 27.2208 23.0792C25.9181 23.3319 24.9167 23.8083 24.2167 24.5083C23.5167 25.2083 23.0694 26.2097 22.875 27.5125C22.6806 28.8153 22.7292 30.2736 23.0208 31.8875C23.3125 33.5014 23.8764 35.2125 24.7125 37.0208C25.5486 38.8292 26.6667 40.6278 28.0667 42.4167ZM45.0417 25.2667L49.2417 21.2417C46.675 19.6083 43.8847 18.6556 40.8708 18.3833C37.8569 18.1111 34.9111 18.5389 32.0333 19.6667C33.2 19.7833 34.3569 20.0167 35.5042 20.3667C36.6514 20.7167 37.7792 21.1347 38.8875 21.6208C39.9958 22.1069 41.0653 22.6611 42.0958 23.2833C43.1264 23.9056 44.1083 24.5667 45.0417 25.2667Z" fill="#34A0A4"/>
</g>
<defs>
<clipPath id="clip0_114_97">
<rect x="0.5" width="72" height="72" rx="36" fill="white"/>
</clipPath>
</defs>
</svg>
