<svg width="72" height="72" viewBox="0 0 72 72" fill="none" xmlns="http://www.w3.org/2000/svg">
<g clip-path="url(#clip0_289_847)">
<rect width="72" height="72" rx="36" fill="white"/>
<path d="M53.8167 57L38.475 41.6583L41.1583 38.975L56.5 54.3167L53.8167 57ZM20.5667 54.3167C18.5056 52.0611 16.9792 49.5625 15.9875 46.8208C14.9958 44.0792 14.5 41.2889 14.5 38.45C14.5 35.4167 15.0639 32.4611 16.1917 29.5833C17.3194 26.7056 19.0306 24.1194 21.325 21.825C23.6194 19.5306 26.2153 17.8194 29.1125 16.6917C32.0097 15.5639 34.975 15 38.0083 15C40.8472 15 43.6375 15.4958 46.3792 16.4875C49.1208 17.4792 51.6 19.0056 53.8167 21.0667L20.5667 54.3167ZM20.7417 49.125L24.7667 45.0417C24.1444 44.1861 23.5222 43.2625 22.9 42.2708C22.2778 41.2792 21.7042 40.2292 21.1792 39.1208C20.6542 38.0125 20.2167 36.8653 19.8667 35.6792C19.5167 34.4931 19.2833 33.2778 19.1667 32.0333C18.1167 34.9111 17.7569 37.8472 18.0875 40.8417C18.4181 43.8361 19.3028 46.5972 20.7417 49.125ZM27.5667 42.4167L41.9167 27.95C40.1278 26.55 38.3097 25.4514 36.4625 24.6542C34.6153 23.8569 32.8556 23.3319 31.1833 23.0792C29.5111 22.8264 28.0236 22.8264 26.7208 23.0792C25.4181 23.3319 24.4167 23.8083 23.7167 24.5083C23.0167 25.2083 22.5694 26.2097 22.375 27.5125C22.1806 28.8153 22.2292 30.2736 22.5208 31.8875C22.8125 33.5014 23.3764 35.2125 24.2125 37.0208C25.0486 38.8292 26.1667 40.6278 27.5667 42.4167ZM44.5417 25.2667L48.7417 21.2417C46.175 19.6083 43.3847 18.6556 40.3708 18.3833C37.3569 18.1111 34.4111 18.5389 31.5333 19.6667C32.7 19.7833 33.8569 20.0167 35.0042 20.3667C36.1514 20.7167 37.2792 21.1347 38.3875 21.6208C39.4958 22.1069 40.5653 22.6611 41.5958 23.2833C42.6264 23.9056 43.6083 24.5667 44.5417 25.2667Z" fill="#34A0A4"/>
</g>
<defs>
<clipPath id="clip0_289_847">
<rect width="72" height="72" rx="36" fill="white"/>
</clipPath>
</defs>
</svg>
