<svg width="25" height="24" viewBox="0 0 25 24" fill="none" xmlns="http://www.w3.org/2000/svg">
<path d="M22.21 20.29L18.5 16.61C19.9401 14.8144 20.6375 12.5353 20.4488 10.2413C20.2601 7.94733 19.1997 5.81281 17.4855 4.27667C15.7714 2.74053 13.5338 1.91954 11.2329 1.9825C8.93203 2.04546 6.74272 2.98759 5.11514 4.61517C3.48756 6.24275 2.54543 8.43207 2.48247 10.7329C2.41951 13.0338 3.2405 15.2714 4.77664 16.9855C6.31278 18.6997 8.4473 19.7601 10.7413 19.9488C13.0353 20.1375 15.3144 19.4401 17.11 18L20.79 21.68C20.883 21.7738 20.9936 21.8482 21.1154 21.8989C21.2373 21.9497 21.368 21.9758 21.5 21.9758C21.632 21.9758 21.7627 21.9497 21.8846 21.8989C22.0064 21.8482 22.117 21.7738 22.21 21.68C22.3902 21.4936 22.491 21.2444 22.491 20.985C22.491 20.7257 22.3902 20.4765 22.21 20.29ZM11.5 18C10.1155 18 8.76215 17.5895 7.611 16.8203C6.45986 16.0511 5.56265 14.9579 5.03284 13.6788C4.50303 12.3997 4.3644 10.9923 4.6345 9.63439C4.9046 8.27653 5.57128 7.02925 6.55025 6.05028C7.52922 5.07131 8.7765 4.40463 10.1344 4.13453C11.4922 3.86443 12.8997 4.00306 14.1788 4.53287C15.4579 5.06268 16.5511 5.95989 17.3203 7.11103C18.0895 8.26218 18.5 9.61556 18.5 11C18.5 12.8565 17.7625 14.637 16.4497 15.9498C15.137 17.2625 13.3565 18 11.5 18Z" fill="white"/>
</svg>
