<svg width="23" height="18" viewBox="0 0 23 18" fill="none" xmlns="http://www.w3.org/2000/svg">
<path d="M11.8149 9.22C12.3485 8.75813 12.7765 8.18688 13.0698 7.54502C13.3631 6.90316 13.5149 6.20571 13.5149 5.5C13.5149 4.17392 12.9882 2.90215 12.0505 1.96447C11.1128 1.02678 9.84102 0.5 8.51494 0.5C7.18886 0.5 5.91709 1.02678 4.9794 1.96447C4.04172 2.90215 3.51494 4.17392 3.51494 5.5C3.51493 6.20571 3.66674 6.90316 3.96006 7.54502C4.25339 8.18688 4.68136 8.75813 5.21494 9.22C3.81508 9.85388 2.6274 10.8775 1.79392 12.1685C0.960434 13.4596 0.51641 14.9633 0.514938 16.5C0.514938 16.7652 0.620295 17.0196 0.807832 17.2071C0.995368 17.3946 1.24972 17.5 1.51494 17.5C1.78015 17.5 2.03451 17.3946 2.22205 17.2071C2.40958 17.0196 2.51494 16.7652 2.51494 16.5C2.51494 14.9087 3.14708 13.3826 4.2723 12.2574C5.39752 11.1321 6.92364 10.5 8.51494 10.5C10.1062 10.5 11.6324 11.1321 12.7576 12.2574C13.8828 13.3826 14.5149 14.9087 14.5149 16.5C14.5149 16.7652 14.6203 17.0196 14.8078 17.2071C14.9954 17.3946 15.2497 17.5 15.5149 17.5C15.7802 17.5 16.0345 17.3946 16.222 17.2071C16.4096 17.0196 16.5149 16.7652 16.5149 16.5C16.5135 14.9633 16.0694 13.4596 15.236 12.1685C14.4025 10.8775 13.2148 9.85388 11.8149 9.22ZM8.51494 8.5C7.92159 8.5 7.34158 8.32405 6.84823 7.99441C6.35488 7.66476 5.97036 7.19623 5.7433 6.64805C5.51624 6.09987 5.45683 5.49667 5.57258 4.91473C5.68834 4.33279 5.97406 3.79824 6.39362 3.37868C6.81318 2.95912 7.34772 2.6734 7.92967 2.55764C8.51161 2.44189 9.11481 2.5013 9.66299 2.72836C10.2112 2.95542 10.6797 3.33994 11.0093 3.83329C11.339 4.32664 11.5149 4.90666 11.5149 5.5C11.5149 6.29565 11.1989 7.05871 10.6363 7.62132C10.0737 8.18393 9.31059 8.5 8.51494 8.5ZM18.2549 8.82C18.8949 8.09933 19.3129 7.20905 19.4587 6.25634C19.6045 5.30362 19.4719 4.32907 19.0767 3.45C18.6815 2.57093 18.0407 1.8248 17.2314 1.30142C16.4221 0.77805 15.4787 0.499742 14.5149 0.5C14.2497 0.5 13.9954 0.605357 13.8078 0.792893C13.6203 0.98043 13.5149 1.23478 13.5149 1.5C13.5149 1.76522 13.6203 2.01957 13.8078 2.20711C13.9954 2.39464 14.2497 2.5 14.5149 2.5C15.3106 2.5 16.0737 2.81607 16.6363 3.37868C17.1989 3.94129 17.5149 4.70435 17.5149 5.5C17.5135 6.02524 17.3742 6.5409 17.111 6.99542C16.8478 7.44994 16.4698 7.82738 16.0149 8.09C15.8667 8.17552 15.7428 8.29766 15.6553 8.44474C15.5678 8.59182 15.5194 8.7589 15.5149 8.93C15.5108 9.09976 15.5499 9.2678 15.6286 9.41826C15.7073 9.56872 15.8231 9.69665 15.9649 9.79L16.3549 10.05L16.4849 10.12C17.6903 10.6917 18.7072 11.596 19.4159 12.7263C20.1246 13.8566 20.4955 15.1659 20.4849 16.5C20.4849 16.7652 20.5903 17.0196 20.7778 17.2071C20.9654 17.3946 21.2197 17.5 21.4849 17.5C21.7502 17.5 22.0045 17.3946 22.192 17.2071C22.3796 17.0196 22.4849 16.7652 22.4849 16.5C22.4931 14.9654 22.1088 13.4543 21.3684 12.1101C20.6281 10.7659 19.5563 9.63331 18.2549 8.82Z" fill="#34A0A4"/>
</svg>
